<svg width="1921" height="1076" viewBox="0 0 1921 1076" fill="none" xmlns="http://www.w3.org/2000/svg">
<path opacity="0.11" d="M1920.18 607.406C1920.18 607.406 1819.75 847.35 1518.98 798.883C1218.2 750.416 1076.91 808.46 981.347 913.824C885.785 1019.19 629.256 1008.15 400.36 966.198C171.464 924.243 37.1945 1007.99 0.000488281 1075.64C-0.0155117 1075.65 0.373535 0.0269775 0.373535 0.0269775L1920.14 0L1920.18 607.406Z" fill="url(#paint0_linear_128_3)"/>
<path d="M1920.13 607.558C1920.13 607.558 1824.86 811.751 1518.92 768.705C1212.97 725.659 1099.26 736.605 974.727 865.597C850.195 994.589 630.75 973.137 401.818 932.663C172.886 892.189 41.6284 1000.82 0.0284424 1075.63C-0.0125576 1073.23 0.102539 0.0100098 0.102539 0.0100098L1920.1 0.0210266L1920.13 607.558Z" fill="url(#paint1_linear_128_3)"/>
<mask id="mask0_128_3" style="mask-type:luminance" maskUnits="userSpaceOnUse" x="0" y="0" width="1921" height="1076">
<path d="M1920.13 607.558C1920.13 607.558 1824.86 811.751 1518.92 768.705C1212.97 725.659 1099.26 736.605 974.727 865.597C850.195 994.589 630.75 973.137 401.818 932.663C172.886 892.189 41.6284 1000.82 0.0284424 1075.63C-0.0125576 1073.23 0.102539 0.0100098 0.102539 0.0100098L1920.1 0.0210266L1920.13 607.558Z" fill="white"/>
</mask>
<g mask="url(#mask0_128_3)">
<path opacity="0.14" d="M1894.46 687.743C1894.46 687.743 1720.22 295.697 1077.03 432.711C433.839 569.725 207.615 510.178 20.8685 -31.271" stroke="#361CC1" stroke-width="128"/>
</g>
<defs>
<linearGradient id="paint0_linear_128_3" x1="960.092" y1="0" x2="960.092" y2="1075.64" gradientUnits="userSpaceOnUse">
<stop stop-color="#361CC1"/>
<stop offset="1" stop-color="#2E82EF"/>
</linearGradient>
<linearGradient id="paint1_linear_128_3" x1="960.073" y1="0.0100098" x2="960.073" y2="1075.63" gradientUnits="userSpaceOnUse">
<stop stop-color="#361CC1"/>
<stop offset="1" stop-color="#2E82EF"/>
</linearGradient>
</defs>
</svg>
