<svg width="233" height="47" viewBox="0 0 233 47" fill="none" xmlns="http://www.w3.org/2000/svg">
<path d="M31.12 46H22.912L9.184 25.216V46H0.976V12.304H9.184L22.912 33.184V12.304H31.12V46ZM56.6058 40.048H44.0298L42.0138 46H33.4218L45.6138 12.304H55.1178L67.3098 46H58.6218L56.6058 40.048ZM54.4938 33.712L50.3178 21.376L46.1898 33.712H54.4938ZM68.1884 29.104C68.1884 25.776 68.9084 22.816 70.3484 20.224C71.7884 17.6 73.7884 15.568 76.3484 14.128C78.9404 12.656 81.8684 11.92 85.1324 11.92C89.1324 11.92 92.5564 12.976 95.4044 15.088C98.2524 17.2 100.156 20.08 101.116 23.728H92.0924C91.4204 22.32 90.4604 21.248 89.2124 20.512C87.9964 19.776 86.6044 19.408 85.0364 19.408C82.5084 19.408 80.4604 20.288 78.8924 22.048C77.3244 23.808 76.5404 26.16 76.5404 29.104C76.5404 32.048 77.3244 34.4 78.8924 36.16C80.4604 37.92 82.5084 38.8 85.0364 38.8C86.6044 38.8 87.9964 38.432 89.2124 37.696C90.4604 36.96 91.4204 35.888 92.0924 34.48H101.116C100.156 38.128 98.2524 41.008 95.4044 43.12C92.5564 45.2 89.1324 46.24 85.1324 46.24C81.8684 46.24 78.9404 45.52 76.3484 44.08C73.7884 42.608 71.7884 40.576 70.3484 37.984C68.9084 35.392 68.1884 32.432 68.1884 29.104ZM112.911 18.88V25.696H123.903V32.032H112.911V39.424H125.343V46H104.703V12.304H125.343V18.88H112.911ZM159.376 46H151.168L137.44 25.216V46H129.232V12.304H137.44L151.168 33.184V12.304H159.376V46ZM151.744 6.592L144.304 10.384L136.864 6.592V0.927997L144.304 5.104L151.744 0.927997V6.592ZM196.857 12.304V18.88H187.929V46H179.721V18.88H170.793V12.304H196.857ZM215.473 46.336C212.305 46.336 209.393 45.6 206.737 44.128C204.113 42.656 202.017 40.608 200.449 37.984C198.913 35.328 198.145 32.352 198.145 29.056C198.145 25.76 198.913 22.8 200.449 20.176C202.017 17.552 204.113 15.504 206.737 14.032C209.393 12.56 212.305 11.824 215.473 11.824C218.641 11.824 221.537 12.56 224.161 14.032C226.817 15.504 228.897 17.552 230.401 20.176C231.937 22.8 232.705 25.76 232.705 29.056C232.705 32.352 231.937 35.328 230.401 37.984C228.865 40.608 226.785 42.656 224.161 44.128C221.537 45.6 218.641 46.336 215.473 46.336ZM215.473 38.848C218.161 38.848 220.305 37.952 221.905 36.16C223.537 34.368 224.353 32 224.353 29.056C224.353 26.08 223.537 23.712 221.905 21.952C220.305 20.16 218.161 19.264 215.473 19.264C212.753 19.264 210.577 20.144 208.945 21.904C207.345 23.664 206.545 26.048 206.545 29.056C206.545 32.032 207.345 34.416 208.945 36.208C210.577 37.968 212.753 38.848 215.473 38.848Z" fill="black"/>
</svg>
