<svg id="SvgjsSvg1021" width="288" height="288" xmlns="http://www.w3.org/2000/svg" version="1.1" xmlns:xlink="http://www.w3.org/1999/xlink" xmlns:svgjs="http://svgjs.com/svgjs"><defs id="SvgjsDefs1022"></defs><g id="SvgjsG1023"><svg xmlns="http://www.w3.org/2000/svg" fill="none" viewBox="0 0 24 24" width="288" height="288"><path fill="#ffffff" fill-rule="evenodd" d="M2 4.5C2 3.11929 3.11929 2 4.5 2H19.5C20.8807 2 22 3.11929 22 4.5V19.5C22 20.8807 20.8807 22 19.5 22H4.5C3.11929 22 2 20.8807 2 19.5V4.5ZM12.5 5.5C13.0523 5.5 13.5 5.94772 13.5 6.5V10.5H17.5C18.0523 10.5 18.5 10.9477 18.5 11.5V12.5C18.5 13.0523 18.0523 13.5 17.5 13.5H13.5V17.5C13.5 18.0523 13.0523 18.5 12.5 18.5H11.5C10.9477 18.5 10.5 18.0523 10.5 17.5V13.5H6.5C5.94772 13.5 5.5 13.0523 5.5 12.5V11.5C5.5 10.9477 5.94772 10.5 6.5 10.5H10.5V6.5C10.5 5.94772 10.9477 5.5 11.5 5.5H12.5Z" clip-rule="evenodd" class="color000 svgShape"></path></svg></g></svg>