<svg width="1354" height="1027" viewBox="0 0 1354 1027" fill="none" xmlns="http://www.w3.org/2000/svg">
<path d="M896.499 65.5014L242.999 246.501C187.399 261.901 209.166 279.584 226.999 286.501C278.833 310.334 388.199 360.201 410.999 369.001C433.799 377.801 461.833 372.668 472.999 369.001C672.166 311.668 1080.5 193.901 1120.5 181.501C1160.5 169.101 1140.17 147.668 1125 138.501C1075.33 117.668 970.599 73.9014 948.999 65.5014C927.399 57.1014 904.999 62.0014 896.499 65.5014Z" stroke="white" stroke-width="11"/>
<path d="M20 254.5L960.5 6C969.7 6.8 1025 26.3333 1051.5 36C1056.33 36.8333 1065.9 41.9 1065.5 55.5C1065.1 69.1 1067.33 73.5 1068.5 74C1103.83 87.8333 1178 116.6 1192 121C1206 125.4 1212.83 123.5 1214.5 122C1221.7 116.4 1242.83 117.333 1252.5 118.5C1272.33 126.167 1316 142.9 1332 148.5C1348 154.1 1349.33 167.5 1348 173.5C1341.33 327.5 1327.9 641.4 1327.5 665C1327.1 688.6 1317 695.833 1312 696.5C1016.5 800.333 420.8 1009.9 402 1017.5C383.2 1025.1 370.833 1019 367 1015L300 975.5C298.8 977.5 291.167 968.333 287.5 963.5C284 949.167 276.9 919.8 276.5 917C276.1 914.2 271.667 908.167 269.5 905.5L197 870C191.4 864 182 862.833 178 863C162.167 862.833 130.1 862.6 128.5 863C126.9 863.4 122.167 861.833 120 861C95 845.167 44.1 812.9 40.5 810.5C36.9 808.1 34.3333 803.167 33.5 801L6 275C8 263.8 16.1667 256.667 20 254.5Z" stroke="white" stroke-width="10"/>
<path d="M11.5 265L102 311.5" stroke="white" stroke-width="11"/>
<path d="M383.5 1020.5L373.5 448.499L272.5 402.999M272.5 402.999C285.667 394.332 300.4 377.299 270 362.499C239.6 347.699 183 319.666 158.5 307.499C149.333 302.999 124.5 297.299 98.5 310.499C98.5 314.499 100.167 316.166 101 316.499L121 856.499M272.5 402.999L267.5 406.499L276 914.499" stroke="white" stroke-width="11"/>
<path d="M1346.5 158L374 447.5" stroke="white" stroke-width="11"/>
<path d="M928 92.5V204.5" stroke="white" stroke-width="6" stroke-linecap="round"/>
<path d="M320 425.5L326 987.5" stroke="white" stroke-width="6" stroke-linecap="round"/>
<path d="M57 288.5L74 829.5" stroke="white" stroke-width="6" stroke-linecap="round"/>
<path d="M462 951.5L1259 675" stroke="white" stroke-width="6" stroke-linecap="round"/>
</svg>
