<svg width="1462" height="1084" viewBox="0 0 1462 1084" fill="none" xmlns="http://www.w3.org/2000/svg">
<path d="M164.581 307.989C156.248 303.156 132.281 296.389 103.081 307.989L124.081 859.988H170.081C174.748 860.155 185.981 861.888 193.581 867.488" stroke="white" stroke-width="10" strokeLinecap="round"/>
<path d="M1076.58 76.4877C1072.08 75.6544 1063.48 71.8877 1065.08 63.4877C1067.08 52.9877 1064.58 36.9877 1047.08 32.4877C1033.08 28.8877 989.581 13.9877 969.581 6.98775C967.248 5.48775 959.781 3.38775 948.581 6.98775C937.381 10.5877 326.581 171.488 22.5814 251.488C16.2481 254.488 3.88139 264.288 5.08139 279.488C6.28139 294.688 23.2478 627.488 31.5811 791.988C32.5811 797.822 36.7811 810.788 45.5811 815.988C54.3811 821.188 99.9144 847.822 121.581 860.488" stroke="white" stroke-width="10" strokeLinecap="round"/>
<path d="M102.581 309.488L12.0811 263.988" stroke="white" stroke-width="10" strokeLinecap="round"/>
<path d="M56.5811 288.988L73.0811 830.488" stroke="white" stroke-width="6"/>
<path d="M225 287.001C208 279.001 184.2 260.301 225 249.501C265.8 238.701 689 121.001 895.5 63.5009C904.5 59.6675 928.2 55.4009 951 69.0009" stroke="white" stroke-width="10"/>
<path d="M191.5 865.5L385 965.5" stroke="white" stroke-width="10"/>
<path d="M1312 180.5L1072 73.5" stroke="white" stroke-width="10"/>
<path d="M1235 196L948.5 66.5" stroke="white" stroke-width="10"/>
<path d="M472 1071.2C475.333 1076.54 489 1084 517 1071.2C537.4 1063.6 1124.17 858.368 1415 756.702C1421.67 753.868 1436.5 750.702 1436.5 705.702C1436.5 698.102 1449.5 385.868 1456 230.702C1456.67 223.702 1454.8 208.902 1442 205.702C1429.2 202.502 1386 185.702 1366 177.702C1358.5 175.035 1337.1 172.002 1311.5 181.202" stroke="white" stroke-width="10" strokeLinecap="round"/>
<path d="M1453 214.701L483.5 505.201L385.5 460.701C395.667 452.701 409.9 433.701 385.5 421.701" stroke="white" stroke-width="10" strokeLinecap="round"/>
<path d="M380 463.701L386.5 976.201L393.5 1016.2C394.667 1020.37 400.2 1030.5 413 1037.7C425.8 1044.9 456.667 1062.03 470.5 1069.7" stroke="white" stroke-width="10" strokeLinecap="round"/>
<path d="M485 506.701L495.5 1075.7" stroke="white" stroke-width="10" strokeLinecap="round"/>
<path d="M574 1010.2L1366 732.701" stroke="white" stroke-width="6" strokeLinecap="round"/>
<path d="M430 482.201L433.5 1047.7" stroke="white" stroke-width="6"/>
<path d="M452.5 396.201L499 418.201C513 425.701 552.3 437.601 597.5 425.201C642.7 412.801 1038.67 296.701 1231 240.201C1245.33 235.868 1265.4 220.101 1231 191.701" stroke="white" stroke-width="10"/>
<path d="M462.5 401L219.5 284.5" stroke="white" stroke-width="10"/>
<path d="M388 422L166 307" stroke="white" stroke-width="10"/>
<path d="M917.5 87.5V291.5" stroke="white" stroke-width="6"/>
</svg>
