<svg width="1550" height="1126" viewBox="0 0 1550 1126" fill="none" xmlns="http://www.w3.org/2000/svg">
<path d="M164.581 307.989C156.248 303.156 132.281 296.389 103.081 307.989L124.081 859.988H170.081C174.748 860.155 185.981 861.888 193.581 867.488" stroke="white" stroke-width="10" stroke-linecap="round"/>
<path d="M1076.58 76.4877C1072.08 75.6544 1063.48 71.8877 1065.08 63.4877C1067.08 52.9877 1064.58 36.9877 1047.08 32.4877C1033.08 28.8877 989.581 13.9877 969.581 6.98775C967.248 5.48775 959.781 3.38775 948.581 6.98775C937.381 10.5877 326.581 171.488 22.5814 251.488C16.2481 254.488 3.88139 264.288 5.08139 279.488C6.28139 294.688 23.2478 627.488 31.5811 791.988C32.5811 797.822 36.7811 810.788 45.5811 815.988C54.3811 821.188 99.9144 847.822 121.581 860.488" stroke="white" stroke-width="10" stroke-linecap="round"/>
<path d="M102.581 309.488L12.0811 263.988" stroke="white" stroke-width="10" stroke-linecap="round"/>
<path d="M56.5811 288.988L73.0811 830.488" stroke="white" stroke-width="6"/>
<path d="M225 287.001C208 279.001 184.2 260.301 225 249.501C265.8 238.701 689 121.001 895.5 63.5009C904.5 59.6675 928.2 55.4009 951 69.0009" stroke="white" stroke-width="10"/>
<path d="M546 441L216 282.5" stroke="white" stroke-width="10" stroke-linecap="round"/>
<path d="M476.5 465L162.5 306.5" stroke="white" stroke-width="10" stroke-linecap="round"/>
<path d="M193.5 867L470.5 1006" stroke="white" stroke-width="10" stroke-linecap="round"/>
<path d="M1399.5 223.5L1071 74.5" stroke="white" stroke-width="10" stroke-linecap="round"/>
<path d="M1323 237.5L946 65.5" stroke="white" stroke-width="10" stroke-linecap="round"/>
<path d="M917.5 85V363.5" stroke="white" stroke-width="6" stroke-linecap="round"/>
<path d="M560 1113.2C563.333 1118.54 577 1126 605 1113.2C625.4 1105.6 1212.17 900.368 1503 798.702C1509.67 795.868 1524.5 792.702 1524.5 747.702C1524.5 740.102 1537.5 427.868 1544 272.702C1544.67 265.702 1542.8 250.902 1530 247.702C1517.2 244.502 1474 227.702 1454 219.702C1446.5 217.035 1425.1 214.002 1399.5 223.202" stroke="white" stroke-width="10" stroke-linecap="round"/>
<path d="M1541 256.701L571.5 547.201L473.5 502.701C483.667 494.701 497.9 475.701 473.5 463.701" stroke="white" stroke-width="10" stroke-linecap="round"/>
<path d="M468 505.701L474.5 1018.2L481.5 1058.2C482.667 1062.37 488.2 1072.5 501 1079.7C513.8 1086.9 544.667 1104.03 558.5 1111.7" stroke="white" stroke-width="10" stroke-linecap="round"/>
<path d="M573 548.701L583.5 1117.7" stroke="white" stroke-width="10" stroke-linecap="round"/>
<path d="M662 1052.2L1454 774.701" stroke="white" stroke-width="6" stroke-linecap="round"/>
<path d="M518 524.201L521.5 1089.7" stroke="white" stroke-width="6"/>
<path d="M540.5 438.201L587 460.201C601 467.701 640.3 479.601 685.5 467.201C730.7 454.801 1126.67 338.701 1319 282.201C1333.33 277.868 1353.4 262.101 1319 233.701" stroke="white" stroke-width="10"/>
</svg>
